<mxfile host="Electron" agent="Mozilla/5.0 (Macintosh; Intel Mac OS X 10_15_7) AppleWebKit/537.36 (KHTML, like Gecko) draw.io/25.0.2 Chrome/128.0.6613.186 Electron/32.2.5 Safari/537.36" version="25.0.2">
  <diagram name="Page-1" id="DdZC9s1bQFweKK0gMhst">
    <mxGraphModel dx="1024" dy="610" grid="0" gridSize="10" guides="1" tooltips="1" connect="1" arrows="1" fold="1" page="1" pageScale="1" pageWidth="850" pageHeight="1100" math="0" shadow="0">
      <root>
        <mxCell id="0" />
        <mxCell id="1" parent="0" />
        <mxCell id="fTpNcx0AAWisYeX2oTaS-6" value="" style="rounded=1;whiteSpace=wrap;html=1;fillColor=#fff2cc;strokeColor=#d6b656;glass=0;gradientColor=none;sketch=1;curveFitting=1;jiggle=2;" parent="1" vertex="1">
          <mxGeometry x="200" y="330" width="360" height="130" as="geometry" />
        </mxCell>
        <mxCell id="fTpNcx0AAWisYeX2oTaS-1" value="k8s-worker-1&lt;br&gt;172.16.2.11" style="aspect=fixed;sketch=0;html=1;dashed=0;whitespace=wrap;verticalLabelPosition=bottom;verticalAlign=top;fillColor=#2875E2;strokeColor=#ffffff;points=[[0.005,0.63,0],[0.1,0.2,0],[0.9,0.2,0],[0.5,0,0],[0.995,0.63,0],[0.72,0.99,0],[0.5,1,0],[0.28,0.99,0]];shape=mxgraph.kubernetes.icon2;prIcon=k_proxy" parent="1" vertex="1">
          <mxGeometry x="250" y="360" width="50" height="48" as="geometry" />
        </mxCell>
        <mxCell id="fTpNcx0AAWisYeX2oTaS-2" value="&amp;nbsp;k8s-worker-2&lt;div&gt;172.16.2.12&lt;/div&gt;" style="aspect=fixed;sketch=0;html=1;dashed=0;whitespace=wrap;verticalLabelPosition=bottom;verticalAlign=top;fillColor=#2875E2;strokeColor=#ffffff;points=[[0.005,0.63,0],[0.1,0.2,0],[0.9,0.2,0],[0.5,0,0],[0.995,0.63,0],[0.72,0.99,0],[0.5,1,0],[0.28,0.99,0]];shape=mxgraph.kubernetes.icon2;prIcon=k_proxy" parent="1" vertex="1">
          <mxGeometry x="450" y="360" width="50" height="48" as="geometry" />
        </mxCell>
        <mxCell id="fTpNcx0AAWisYeX2oTaS-16" style="rounded=0;orthogonalLoop=1;jettySize=auto;html=1;dashed=1;startArrow=block;startFill=1;endArrow=block;endFill=1;strokeColor=default;flowAnimation=0;sketch=1;curveFitting=1;jiggle=2;" parent="1" source="fTpNcx0AAWisYeX2oTaS-5" target="fTpNcx0AAWisYeX2oTaS-10" edge="1">
          <mxGeometry relative="1" as="geometry" />
        </mxCell>
        <mxCell id="fTpNcx0AAWisYeX2oTaS-5" value="" style="points=[];aspect=fixed;html=1;align=center;shadow=0;dashed=0;fillColor=#FF6A00;strokeColor=none;shape=mxgraph.alibaba_cloud.cloudbox;" parent="1" vertex="1">
          <mxGeometry x="360" y="540" width="37.99" height="44" as="geometry" />
        </mxCell>
        <mxCell id="fTpNcx0AAWisYeX2oTaS-7" value="" style="rounded=1;whiteSpace=wrap;html=1;fillColor=#dae8fc;strokeColor=#6c8ebf;glass=0;shadow=0;sketch=1;curveFitting=1;jiggle=2;" parent="1" vertex="1">
          <mxGeometry x="200" y="840" width="360" height="130" as="geometry" />
        </mxCell>
        <mxCell id="fTpNcx0AAWisYeX2oTaS-8" value="k8s-master-1&lt;br&gt;172.16.1.11" style="aspect=fixed;sketch=0;html=1;dashed=0;whitespace=wrap;verticalLabelPosition=bottom;verticalAlign=top;fillColor=#2875E2;strokeColor=#ffffff;points=[[0.005,0.63,0],[0.1,0.2,0],[0.9,0.2,0],[0.5,0,0],[0.995,0.63,0],[0.72,0.99,0],[0.5,1,0],[0.28,0.99,0]];shape=mxgraph.kubernetes.icon2;prIcon=k_proxy" parent="1" vertex="1">
          <mxGeometry x="250" y="870" width="50" height="48" as="geometry" />
        </mxCell>
        <mxCell id="fTpNcx0AAWisYeX2oTaS-9" value="&amp;nbsp;k8s-master-2&lt;br&gt;172.16.1.12" style="aspect=fixed;sketch=0;html=1;dashed=0;whitespace=wrap;verticalLabelPosition=bottom;verticalAlign=top;fillColor=#2875E2;strokeColor=#ffffff;points=[[0.005,0.63,0],[0.1,0.2,0],[0.9,0.2,0],[0.5,0,0],[0.995,0.63,0],[0.72,0.99,0],[0.5,1,0],[0.28,0.99,0]];shape=mxgraph.kubernetes.icon2;prIcon=k_proxy" parent="1" vertex="1">
          <mxGeometry x="450" y="870" width="50" height="48" as="geometry" />
        </mxCell>
        <mxCell id="fTpNcx0AAWisYeX2oTaS-18" style="edgeStyle=orthogonalEdgeStyle;rounded=0;orthogonalLoop=1;jettySize=auto;html=1;flowAnimation=0;sketch=1;curveFitting=1;jiggle=2;" parent="1" source="fTpNcx0AAWisYeX2oTaS-10" target="fTpNcx0AAWisYeX2oTaS-8" edge="1">
          <mxGeometry relative="1" as="geometry" />
        </mxCell>
        <mxCell id="fTpNcx0AAWisYeX2oTaS-10" value="k8s-lb-1&lt;div&gt;172.16.0.11&lt;br&gt;(keepalived + haproxy)&lt;/div&gt;" style="sketch=0;outlineConnect=0;fontColor=#232F3E;gradientColor=none;fillColor=#8C4FFF;strokeColor=none;dashed=0;verticalLabelPosition=bottom;verticalAlign=top;align=center;html=1;fontSize=12;fontStyle=0;aspect=fixed;pointerEvents=1;shape=mxgraph.aws4.network_load_balancer;" parent="1" vertex="1">
          <mxGeometry x="250" y="670" width="50" height="50" as="geometry" />
        </mxCell>
        <mxCell id="fTpNcx0AAWisYeX2oTaS-12" value="k8s-lb-2&lt;br&gt;172.16.0.12&lt;br&gt;(keepalived + haproxy)" style="sketch=0;outlineConnect=0;fontColor=#232F3E;gradientColor=none;fillColor=#8C4FFF;strokeColor=none;dashed=0;verticalLabelPosition=bottom;verticalAlign=top;align=center;html=1;fontSize=12;fontStyle=0;aspect=fixed;pointerEvents=1;shape=mxgraph.aws4.network_load_balancer;" parent="1" vertex="1">
          <mxGeometry x="450" y="670" width="50" height="50" as="geometry" />
        </mxCell>
        <mxCell id="fTpNcx0AAWisYeX2oTaS-13" style="rounded=0;orthogonalLoop=1;jettySize=auto;html=1;entryX=0.056;entryY=0.164;entryDx=0;entryDy=0;entryPerimeter=0;endArrow=block;endFill=1;flowAnimation=0;sketch=1;curveFitting=1;jiggle=2;" parent="1" source="fTpNcx0AAWisYeX2oTaS-1" target="fTpNcx0AAWisYeX2oTaS-5" edge="1">
          <mxGeometry relative="1" as="geometry" />
        </mxCell>
        <mxCell id="fTpNcx0AAWisYeX2oTaS-14" style="rounded=0;orthogonalLoop=1;jettySize=auto;html=1;entryX=1.036;entryY=0.201;entryDx=0;entryDy=0;entryPerimeter=0;strokeColor=default;endArrow=block;endFill=1;flowAnimation=0;sketch=1;curveFitting=1;jiggle=2;" parent="1" source="fTpNcx0AAWisYeX2oTaS-2" target="fTpNcx0AAWisYeX2oTaS-5" edge="1">
          <mxGeometry relative="1" as="geometry" />
        </mxCell>
        <mxCell id="fTpNcx0AAWisYeX2oTaS-17" style="rounded=0;orthogonalLoop=1;jettySize=auto;html=1;dashed=1;startArrow=block;startFill=1;endArrow=block;endFill=1;strokeColor=default;flowAnimation=0;sketch=1;curveFitting=1;jiggle=2;" parent="1" source="fTpNcx0AAWisYeX2oTaS-5" target="fTpNcx0AAWisYeX2oTaS-12" edge="1">
          <mxGeometry relative="1" as="geometry">
            <mxPoint x="358" y="594" as="sourcePoint" />
            <mxPoint x="294" y="680" as="targetPoint" />
          </mxGeometry>
        </mxCell>
        <mxCell id="fTpNcx0AAWisYeX2oTaS-19" style="edgeStyle=orthogonalEdgeStyle;rounded=0;orthogonalLoop=1;jettySize=auto;html=1;entryX=0.5;entryY=0;entryDx=0;entryDy=0;entryPerimeter=0;flowAnimation=0;sketch=1;curveFitting=1;jiggle=2;" parent="1" source="fTpNcx0AAWisYeX2oTaS-12" target="fTpNcx0AAWisYeX2oTaS-9" edge="1">
          <mxGeometry relative="1" as="geometry" />
        </mxCell>
        <mxCell id="fTpNcx0AAWisYeX2oTaS-21" value="VIP&lt;br&gt;172.16.0.16" style="text;html=1;align=center;verticalAlign=middle;resizable=0;points=[];autosize=1;strokeColor=none;fillColor=none;" parent="1" vertex="1">
          <mxGeometry x="333.99" y="590" width="90" height="40" as="geometry" />
        </mxCell>
        <mxCell id="fTpNcx0AAWisYeX2oTaS-22" style="rounded=0;orthogonalLoop=1;jettySize=auto;html=1;entryX=0.5;entryY=0;entryDx=0;entryDy=0;entryPerimeter=0;flowAnimation=0;sketch=1;curveFitting=1;jiggle=2;" parent="1" source="fTpNcx0AAWisYeX2oTaS-12" target="fTpNcx0AAWisYeX2oTaS-8" edge="1">
          <mxGeometry relative="1" as="geometry" />
        </mxCell>
        <mxCell id="fTpNcx0AAWisYeX2oTaS-23" style="rounded=0;orthogonalLoop=1;jettySize=auto;html=1;entryX=0.5;entryY=0;entryDx=0;entryDy=0;entryPerimeter=0;endArrow=block;endFill=1;flowAnimation=0;sketch=1;curveFitting=1;jiggle=2;" parent="1" source="fTpNcx0AAWisYeX2oTaS-10" target="fTpNcx0AAWisYeX2oTaS-9" edge="1">
          <mxGeometry relative="1" as="geometry" />
        </mxCell>
        <mxCell id="fTpNcx0AAWisYeX2oTaS-24" value="kubectl" style="sketch=0;points=[[0,0,0],[0.25,0,0],[0.5,0,0],[0.75,0,0],[1,0,0],[0,1,0],[0.25,1,0],[0.5,1,0],[0.75,1,0],[1,1,0],[0,0.25,0],[0,0.5,0],[0,0.75,0],[1,0.25,0],[1,0.5,0],[1,0.75,0]];outlineConnect=0;fontColor=#232F3E;fillColor=#C925D1;strokeColor=#ffffff;dashed=0;verticalLabelPosition=bottom;verticalAlign=top;align=center;html=1;fontSize=12;fontStyle=0;aspect=fixed;shape=mxgraph.aws4.resourceIcon;resIcon=mxgraph.aws4.command_line_interface;" parent="1" vertex="1">
          <mxGeometry x="660" y="544" width="40" height="40" as="geometry" />
        </mxCell>
        <mxCell id="fTpNcx0AAWisYeX2oTaS-25" style="edgeStyle=orthogonalEdgeStyle;rounded=0;orthogonalLoop=1;jettySize=auto;html=1;exitX=0;exitY=0.5;exitDx=0;exitDy=0;exitPerimeter=0;entryX=0.995;entryY=0.566;entryDx=0;entryDy=0;entryPerimeter=0;endArrow=block;endFill=1;flowAnimation=0;sketch=1;curveFitting=1;jiggle=2;" parent="1" source="fTpNcx0AAWisYeX2oTaS-24" target="fTpNcx0AAWisYeX2oTaS-5" edge="1">
          <mxGeometry relative="1" as="geometry" />
        </mxCell>
        <mxCell id="fTpNcx0AAWisYeX2oTaS-31" value="Masters" style="text;html=1;align=center;verticalAlign=middle;whiteSpace=wrap;rounded=0;fontStyle=1" parent="1" vertex="1">
          <mxGeometry x="348.99" y="940" width="60" height="30" as="geometry" />
        </mxCell>
        <mxCell id="fTpNcx0AAWisYeX2oTaS-33" value="Workers" style="text;html=1;align=center;verticalAlign=middle;whiteSpace=wrap;rounded=0;fontStyle=1" parent="1" vertex="1">
          <mxGeometry x="348.99" y="430" width="60" height="30" as="geometry" />
        </mxCell>
        <mxCell id="fTpNcx0AAWisYeX2oTaS-34" value="" style="endArrow=classic;html=1;rounded=0;sketch=1;curveFitting=1;jiggle=2;" parent="1" edge="1">
          <mxGeometry width="50" height="50" relative="1" as="geometry">
            <mxPoint x="660" y="650" as="sourcePoint" />
            <mxPoint x="513" y="693" as="targetPoint" />
          </mxGeometry>
        </mxCell>
        <mxCell id="fTpNcx0AAWisYeX2oTaS-35" value="Kill LB (chaos monkey)" style="text;html=1;align=center;verticalAlign=middle;resizable=0;points=[];autosize=1;strokeColor=none;fillColor=none;" parent="1" vertex="1">
          <mxGeometry x="660" y="634" width="141" height="26" as="geometry" />
        </mxCell>
      </root>
    </mxGraphModel>
  </diagram>
</mxfile>
